<mxfile host="Electron" modified="2024-12-06T10:38:05.139Z" agent="Mozilla/5.0 (Windows NT 10.0; Win64; x64) AppleWebKit/537.36 (KHTML, like Gecko) draw.io/24.2.5 Chrome/120.0.6099.109 Electron/28.1.0 Safari/537.36" etag="wAvkTaKSrjHuGWTkbRav" version="24.2.5" type="device">
  <diagram name="Page-1" id="1-4j9EY8W82IEivPYpTX">
    <mxGraphModel dx="1050" dy="629" grid="1" gridSize="10" guides="1" tooltips="1" connect="1" arrows="1" fold="1" page="1" pageScale="1" pageWidth="850" pageHeight="1100" math="0" shadow="0">
      <root>
        <mxCell id="0" />
        <mxCell id="1" parent="0" />
        <mxCell id="ghD8Ok9GggI1rKifkzkZ-7" value="Create Awareness Compaign" style="text;html=1;align=center;verticalAlign=middle;whiteSpace=wrap;rounded=0;fontSize=20;fontStyle=1" vertex="1" parent="1">
          <mxGeometry x="60" y="10" width="360" height="30" as="geometry" />
        </mxCell>
        <mxCell id="ghD8Ok9GggI1rKifkzkZ-8" value="Constituent" style="shape=umlLifeline;participant=umlActor;perimeter=lifelinePerimeter;whiteSpace=wrap;html=1;container=1;collapsible=0;recursiveResize=0;verticalAlign=top;spacingTop=36;outlineConnect=0;fontSize=20;fontStyle=1;size=40;" vertex="1" parent="1">
          <mxGeometry x="150" y="70" width="40" height="260" as="geometry" />
        </mxCell>
        <mxCell id="ghD8Ok9GggI1rKifkzkZ-9" value="&lt;br&gt;&lt;div&gt;Constituency connect&lt;/div&gt;&lt;div&gt;System&lt;/div&gt;" style="html=1;align=center;verticalAlign=middle;dashed=0;fontSize=16;" vertex="1" parent="1">
          <mxGeometry x="590" y="70" width="160" height="70" as="geometry" />
        </mxCell>
        <mxCell id="ghD8Ok9GggI1rKifkzkZ-10" value="" style="endArrow=none;dashed=1;html=1;rounded=0;entryX=0.5;entryY=1;entryDx=0;entryDy=0;" edge="1" parent="1">
          <mxGeometry width="50" height="50" relative="1" as="geometry">
            <mxPoint x="680" y="320" as="sourcePoint" />
            <mxPoint x="680" y="140" as="targetPoint" />
          </mxGeometry>
        </mxCell>
        <mxCell id="ghD8Ok9GggI1rKifkzkZ-11" value="" style="endArrow=classic;html=1;rounded=0;" edge="1" parent="1" source="ghD8Ok9GggI1rKifkzkZ-19">
          <mxGeometry width="50" height="50" relative="1" as="geometry">
            <mxPoint x="240" y="220" as="sourcePoint" />
            <mxPoint x="680.5" y="220" as="targetPoint" />
            <Array as="points">
              <mxPoint x="560.5" y="220" />
            </Array>
          </mxGeometry>
        </mxCell>
        <mxCell id="ghD8Ok9GggI1rKifkzkZ-12" value="CreateCompaign(CompaignDetails)" style="text;html=1;strokeColor=none;fillColor=none;align=center;verticalAlign=middle;whiteSpace=wrap;rounded=0;" vertex="1" parent="1">
          <mxGeometry x="340" y="190" width="210" height="30" as="geometry" />
        </mxCell>
        <mxCell id="ghD8Ok9GggI1rKifkzkZ-19" value="Representative" style="shape=umlLifeline;participant=umlActor;perimeter=lifelinePerimeter;whiteSpace=wrap;html=1;container=1;collapsible=0;recursiveResize=0;verticalAlign=top;spacingTop=36;outlineConnect=0;fontSize=20;fontStyle=1;size=40;" vertex="1" parent="1">
          <mxGeometry x="300" y="70" width="40" height="260" as="geometry" />
        </mxCell>
        <mxCell id="ghD8Ok9GggI1rKifkzkZ-20" value="SendCompaignNotification(CompaignId,Constituents)" style="html=1;verticalAlign=bottom;endArrow=open;dashed=1;endSize=8;curved=0;rounded=0;" edge="1" parent="1">
          <mxGeometry x="-0.2165" y="-5" relative="1" as="geometry">
            <mxPoint x="680.5" y="274.5" as="sourcePoint" />
            <mxPoint x="170" y="274.5" as="targetPoint" />
            <Array as="points" />
            <mxPoint as="offset" />
          </mxGeometry>
        </mxCell>
      </root>
    </mxGraphModel>
  </diagram>
</mxfile>
